<?xml version="1.0" encoding="UTF-8"?><svg id="a-color" xmlns="http://www.w3.org/2000/svg" viewBox="0 0 890 131"><defs><style>.b{fill:#a32035;}.c{fill:#7a797d;}</style></defs><g><path class="c" d="M161.15,70.95c-4.3-2.2-8.3-4.2-8.3-9.3,0-4.5,2.7-7.3,6.8-7.3s6.7,2.3,7.4,6.4l.1,.3h2.1l-1.1-8.4h-.3c-.6-.1-1.2-.2-1.7-.3-1.8-.3-3.8-.6-5.7-.6-8.2,0-13.3,4.7-13.3,12.2s5.3,10.5,9.9,12.9c4.1,2.1,7.9,4.1,7.9,9.2,0,4.4-3.3,7.6-7.9,7.6-4.9,0-8-4.3-9-8.6l-.1-.3h-2.1l1.3,9.4,.2,.1c2.9,1.3,6.2,2.1,9.4,2.1,7,0,14.5-4.4,14.5-12.6,.1-7.7-5.3-10.4-10.1-12.8Z"/><path class="c" d="M201.95,89.65l-9.2-25.9-5.3,2,.1,.4c0,.2,.1,.4,.1,.6,0,.5-.3,1.2-.6,1.8l-8.6,22c-.5,1.2-1.3,2.3-4.1,2.3h-.4v2.3h.4c1.6-.1,3.4-.1,4.9-.1,2.1,0,4.1,.1,6.1,.1h.4v-2.3h-1.1c-.6,0-2.8-.1-2.8-1.3,0-.8,.5-2.3,.8-3.2,.1-.3,.2-.5,.2-.6l1.2-3.7h9.7l2.1,5.8c.3,.8,.5,1.2,.5,1.8,0,.7-1.4,1.1-2.6,1.1h-.7v.4h-.4v1.9h.4c2.1-.1,4.4-.1,6.7-.1s4.3,.1,6.5,.1h.6v-2.3h-.4c-2.8,.2-3.6-.5-4.5-3.1Zm-8.9-8.1h-7.8l3.9-10.8,3.9,10.8Z"/><path class="c" d="M218.35,65.15c-2.3,0-4.8-.1-6.9-.1h-.4v2.3h.4c3.2,0,4.1,.5,4.1,2.3v21.1c0,1.8-.9,2.3-4.1,2.3h-.4v2.3h.4c2.1-.1,4.6-.1,6.9-.1s4.8,.1,7.1,.1h.4v-2.3h-.3c-3.2,0-4.1-.5-4.1-2.3v-21.1c0-1.8,.9-2.3,4.1-2.3h.4v-2.3h-.4c-2.3,.1-4.8,.1-7.2,.1Z"/><path class="c" d="M260.45,65.15c-2,0-4.1-.1-6-.1h-.4v2.3h.4c3.1,0,4.4,0,4.4,3.8v14.8l-17.8-20.9h-.2c-1.7,.1-3,.1-4,.1-1.3,0-2.6-.1-4-.1h-.6v2.3h.4c2,0,4.4,.4,4.4,2.5v16.7c0,4.4,0,6.4-4.6,6.4h-.4v2.3h.4c2-.1,4.1-.1,6.1-.1,2.1,0,4.4,.1,6.3,.1h.4v-2.3h-.4c-4.3,0-4.7-.9-4.7-5v-15.1l19.8,23.1h2v-25.8c0-2.6,.9-2.8,3.8-2.8h.4v-2.3h-.4c-1.5,.1-3.5,.1-5.3,.1Z"/><path class="c" d="M295.35,63.75c-1,1.3-1.5,1.3-2.9,1.3h-19.2c-.7,0-2.3-.1-2.3-1.1v-.4h-1.9l-.9,8.7h2.3l.1-.3c1-4,1.6-4.3,5.1-4.3h4.2v23c0,1.8-1,2.3-4.4,2.3h-.4v2.3h1.2c2.3-.1,4.4-.1,6.4-.1,2.3,0,4.8,.1,7.3,.1h.6v-2.3h-.4c-3.5,0-4.4-.5-4.4-2.3v-23h5.6c2.1,0,2.6,.3,2.9,4.2v.3h2.3l.7-8.7h-1.8l-.1,.3Z"/><path class="c" d="M321.65,52.55h-.6v2.3h.4c3.2,.1,5.1,.1,5.1,4v34.7c0,4.8,0,12-4.4,12-1.4,0-2.9-.7-2.9-2.2,0-1.7-1.2-2.5-2.3-2.5h0c-.7,0-1.5,.2-2,.8-.4,.4-.9,1.1-.9,2.3,0,3.2,3.5,4.4,6.6,4.4,3.9,0,8-2.2,9.7-5.2,1.6-2.9,2.8-4.9,2.8-13.2v-31.1c0-3.9,1.9-3.9,5.1-4h.4v-2.3h-1.1c-5.5,.1-10.4,.1-15.9,0Z"/><path class="c" d="M360.05,64.35c-8.4,0-17.3,5.5-17.3,15.7,0,9.5,6.8,16,16.9,16s16.9-8.3,16.9-16c0-9.3-6.7-15.7-16.5-15.7Zm9.9,16.2c0,3.8-.9,12.7-9.6,12.7-6.1,0-10.9-6.1-10.9-13.9,0-6,2.6-12.4,9.7-12.4,6.4,.1,10.8,5.6,10.8,13.6Z"/><path class="c" d="M395.25,77.65c-5.7-2.8-6.5-3.8-6.5-6.5s2-4.4,4.9-4.4c3.8,0,5,2.5,5.6,4.7l.1,.3h2l-.6-6.6h-.3c-.9,0-1.9-.1-3-.3-1.4-.2-2.8-.3-4.1-.3-5.7,0-9.2,4.2-9.2,8.2,0,4.9,1.9,7.3,8.6,10.7,3.9,2,5.2,3.5,5.2,5.8,0,.8-.3,4.6-5.3,4.6-3.9,0-5.8-1.7-7.1-6.2l-.1-.3h-2.1l1,7,.2,.1c2.4,1.1,4.9,1.7,7.6,1.7,6.4,0,11-3.6,11-8.6-.1-4-1.4-6.7-7.9-9.9Z"/><path class="c" d="M434.75,88.15c-2.3,3.9-2.7,4.5-8.5,4.5-5.2,0-6.1-1-6.1-3.2v-8.4h4.6c3.4,0,4,.2,4,3.3v.4h2.3v-.4c-.1-1.6-.1-3.4-.1-5s.1-3.1,.1-4.8v-.4h-2.3v.4c0,3.8-1,3.8-4,3.8h-4.6v-10.6h4.1c6.2,0,6.9,.4,7.6,4.1l.1,.3h2l-.4-7.1h-.4c-4.6,.1-9.7,.1-14.8,.1-2.7,0-5.5-.1-8.1-.1h-.4v2.3h.4c3.2,0,4.1,.5,4.1,2.3v21.1c0,1.8-.9,2.3-4.1,2.3h-.4v2.3h.4c3.6-.1,7.7-.1,11.6-.1,4.3,0,8.6,.1,12.8,.1h.4l2.1-7.4h-2.2l-.2,.2Z"/><path class="c" d="M458.45,65.05c-1.7,0-3.2,0-4.7,.1-1.3,0-2.6,.1-3.9,.1-2.3,0-4.8-.1-6.9-.1h-.4v2.3h.4c2.9,0,3.9,.4,4.1,1.9v21.4c0,1.8-.9,2.3-4.1,2.3h-.4v2.3h.4c2.1-.1,4.6-.1,6.9-.1s4.8,.1,7.1,.1h.4v-2.3h-.4c-3.2,0-4.1-.5-4.1-2.3v-23.2c.5-.1,1.2-.1,2.1-.1,4.6,0,7,2.4,7,7.1,0,4.1-1.6,6-5,6-.3,0-.8-.1-1.1-.1s-.5-.1-.6-.1h-.4v2.2l.3,.1c.2,0,.9,.2,2.1,.2,4.2,0,10.9-2.5,10.9-9.2,0-5.5-3.4-8.6-9.7-8.6Z"/><path class="c" d="M502.15,65.15c-2.4,0-4.8-.1-7.1-.1h-.4v2.3h.4c2.8,0,4.1,.2,4.1,2.3v8.7h-15.7v-8.7c0-2,1.3-2.3,4.1-2.3h.4v-2.3h-.4c-2.3,.1-4.8,.1-7.1,.1s-4.8-.1-6.9-.1h-.4v2.3h.4c3.2,0,4.1,.5,4.1,2.3v21.1c0,1.8-.9,2.3-4.1,2.3h-.4v2.3h.4c2.1-.1,4.6-.1,6.9-.1s4.8,.1,7.1,.1h.4v-2.3h-.4c-2.8,0-4.1-.2-4.1-2.3v-9.7h15.7v9.7c0,2-1.3,2.3-4.1,2.3h-.4v2.3h.4c2.3-.1,4.8-.1,7.1-.1s4.8,.1,6.9,.1h.4v-2.3h-.4c-3.2,0-4.1-.5-4.1-2.3v-21.1c0-1.8,.9-2.3,4.1-2.3h.4v-2.3h-.4c-2.1,.1-4.5,.1-6.9,.1Z"/><path class="c" d="M517.55,52.55c-2.5,0-4.1,1.3-4.1,3.5,0,3.1,1.8,3.5,3.4,3.5,1.5,0,2.6,.2,2.6,2.2,0,2.5-1.9,4.3-5.5,5.5l-.4,.1,.9,2.1,.3-.1c5.5-1.6,8.6-5.2,8.6-9.9,.2-3.3-1.7-6.9-5.8-6.9Z"/><path class="c" d="M537.55,77.65c-5.7-2.8-6.5-3.8-6.5-6.5s2-4.4,4.9-4.4c3.8,0,5,2.5,5.6,4.7l.1,.3h2l-.6-6.6h-.3c-.9,0-1.9-.1-3-.3-1.4-.2-2.8-.3-4.1-.3-5.7,0-9.2,4.2-9.2,8.2,0,4.9,1.9,7.3,8.6,10.7,3.9,2,5.2,3.5,5.2,5.8,0,.8-.3,4.6-5.3,4.6-3.9,0-5.8-1.7-7.1-6.2l-.1-.3h-2.1l1,7,.2,.1c2.4,1.1,4.9,1.7,7.6,1.7,6.4,0,11-3.6,11-8.6-.2-4-1.4-6.7-7.9-9.9Z"/><path class="c" d="M607.35,52.55c-3.5,.1-7.1,0-10.6-.1h-.4v2.3h.7c5,.2,5.1,.2,5.1,9.5v17.1c0,7.6-3.6,11.5-10.6,11.5-7.5,0-11.4-4.6-11.4-13.7v-20.3c0-3.9,1.9-3.9,5.1-4h.4v-2.3h-1.1c-5.6,.1-10.5,.1-16,0h-.6v2.3h.4c3.2,.1,5.1,.1,5.1,4v22c.2,10.1,5.9,15.4,16.4,15.4s16.1-5.5,16.1-14.7v-17.6c0-3.5,0-5.8,.6-7.2,.5-1.3,1.6-1.8,3.8-1.8h.4v-2.3h-.4c-1-.1-2-.1-3-.1Z"/><path class="c" d="M641.95,65.15c-2,0-4.1-.1-6-.1h-.4v2.3h.4c3.1,0,4.4,0,4.4,3.8v14.8l-17.8-20.9h-.2c-1.1,.1-2.7,.1-4,.1s-2.7-.1-4.1-.1h-.5v2.3h.4c2,0,4.4,.4,4.4,2.5v16.7c0,4.4,0,6.4-4.6,6.4h-.4v2.3h.4c2-.1,4.1-.1,6.1-.1,2.1,0,4.4,.1,6.3,.1h.4v-2.3h-.2c-4.3,0-4.7-.9-4.7-5v-15.1l19.7,22.9,.1,.1h2v-25.7c0-2.6,.9-2.8,3.8-2.8h.4v-2.3h-.4c-1.9,.1-3.8,.1-5.5,.1Z"/><path class="c" d="M661.45,65.15c-2.3,0-4.8-.1-6.9-.1h-.4v2.3h.4c3.2,0,4.1,.5,4.1,2.3v21.1c0,1.8-.9,2.3-4.1,2.3h-.4v2.3h.4c2.1-.1,4.6-.1,6.9-.1s4.8,.1,7.1,.1h.4v-2.3h-.4c-3.2,0-4.1-.5-4.1-2.3v-21.1c0-1.8,.9-2.3,4.1-2.3h.4v-2.3h-.4c-2.3,.1-4.8,.1-7.1,.1Z"/><path class="c" d="M700.85,65.15c-1.9,0-3.9-.1-5.9-.1h-.4v2.3h.4c2.4,0,3.6,.1,3.6,1.2,0,.7-.2,1.6-.6,2.5l-6.8,17.1-7.4-18.3-.1-.1c-.2-.4-.3-.9-.3-1.3,0-.5,.1-1.1,1.8-1.1h1.8v-2.3h-.4c-2.2,.1-4.4,.1-6.7,.1-2.1,0-4.2-.1-6.3-.1h-.4v2.3h.4c2.6,0,2.9,.5,3.8,2.6l10.8,25.8,.1,.2h2.6l10.8-25.1c1.5-3.5,2-3.5,3.8-3.5h.4v-2.3h-.4c-1.5,.1-3.2,.1-4.6,.1Z"/><path class="c" d="M734.15,88.15c-2.3,3.9-2.7,4.5-8.5,4.5-5.1,0-6.1-1.1-6.1-3.2v-8.4h4.6c3.4,0,4,.2,4,3.3v.4h2.3v-.4c-.1-1.6-.1-3.4-.1-5s.1-3.1,.1-4.8v-.4h-2.3v.4c0,3.8-1,3.8-4,3.8h-4.6v-10.6h4.1c6.2,0,6.9,.4,7.6,4.1l.1,.3h2l-.4-7.1h-.4c-4.6,.1-9.7,.1-14.8,.1-2.7,0-5.5-.1-8.1-.1h-.4v2.3h.4c3.2,0,4.1,.5,4.1,2.3v21.1c0,1.8-.9,2.3-4.1,2.3h-.4v2.3h.4c3.6-.1,7.7-.1,11.6-.1,4.3,0,8.4,.1,12.7,.1h.5l2.1-7.4h-2.2l-.2,.2Z"/><path class="c" d="M762.25,80.05c4.2-1.5,6.3-3.9,6.3-7.3,0-4.7-3.7-7.7-9.5-7.7-.9,0-2.3,0-3.8,.1-1.7,0-3.6,.1-5.2,.1-2.3,0-4.8-.1-6.9-.1h-.4v2.3h.4c3.2,0,4.1,.5,4.1,2.3v21c0,1.8-.9,2.3-4.1,2.3h-.4v2.3h.4c2.1-.1,4.6-.1,6.9-.1s4.8,.1,7.1,.1h.4v-2.3h-.4c-2.8,0-4.1-.2-4.1-2.3v-9.3c.5,0,1.1,.1,1.7,.1s1.2-.1,1.8-.1l.4,.6c3,5,6.5,10.7,8.7,13.2l.1,.1h.4c1.3-.1,2.4-.1,3.7-.1,1.2,0,2.6,.1,3.6,.1h.4v-2.3l-.3-.1c-3.5-.8-5-2.1-11.3-12.9Zm.4-7.3c0,4-2.4,6-7.2,6.1h-2.2v-11.3c.8-.1,2.1-.1,2.6-.1,3-.1,6.8,.8,6.8,5.3Z"/><path class="c" d="M790.85,77.65c-5.7-2.8-6.5-3.8-6.5-6.5s2-4.4,4.9-4.4c3.8,0,5,2.5,5.6,4.7l.1,.3h2l-.6-6.6h-.3c-.9,0-1.9-.1-3-.3-1.4-.2-2.8-.3-4.1-.3-5.7,0-9.2,4.2-9.2,8.2,0,4.9,1.9,7.3,8.6,10.7,3.9,2,5.2,3.5,5.2,5.8,0,.8-.3,4.6-5.3,4.6-3.9,0-5.8-1.7-7.1-6.2l-.1-.3h-2.1l1,7,.2,.1c2.4,1.1,4.9,1.7,7.6,1.7,6.4,0,11-3.6,11-8.6-.1-4-1.4-6.7-7.9-9.9Z"/><path class="c" d="M814.15,65.15c-2.3,0-4.8-.1-6.9-.1h-.4v2.3h.4c3.2,0,4.1,.5,4.1,2.3v21.1c0,1.8-.9,2.3-4.1,2.3h-.4v2.3h.4c2.1-.1,4.6-.1,6.9-.1s4.8,.1,7.1,.1h.4v-2.3h-.4c-3.2,0-4.1-.5-4.1-2.3v-21.1c0-1.8,.9-2.3,4.1-2.3h.4v-2.3h-.4c-2.3,.1-4.7,.1-7.1,.1Z"/><path class="c" d="M852.05,63.75c-1,1.3-1.5,1.3-2.9,1.3h-19.2c-.8,0-2.3-.1-2.3-1.1v-.4h-1.9l-.9,8.7h2.3l.1-.3c1-4,1.6-4.3,5.1-4.3h4.2v23c0,1.8-1,2.3-4.4,2.3h-.4v2.3h1.2c2.3-.1,4.4-.1,6.4-.1,2.3,0,4.8,.1,7.3,.1h.6v-2.3h-.4c-3.5,0-4.4-.5-4.4-2.3v-23h5.6c2.1,0,2.6,.3,2.9,4.2v.3h2.3l.7-8.7h-1.8l-.1,.3Z"/><path class="c" d="M887.75,65.05c-.9,0-1.8,0-2.7,.1-.8,0-1.6,.1-2.3,.1-1.5,0-3.3,0-5.8-.1h-.4v2.3h.4c3.1,0,3.1,.4,3.1,1s-.6,1.5-1.2,2.2l-5.5,7.7-6.4-9.1-.3-.4c-.4-.5-.5-.7-.5-1,0-.1,.1-.4,2.9-.4h.4v-2.3h-.4c-2.3,.1-4.6,.1-6.8,.1-1.7,0-3.8,0-6.4-.1h-.4v2.3h.4c1.5,0,2.4,.4,3.4,1.7l9.5,13v9c0,1.9-1,2-4.3,2h-.4v2.3h.4c2.6-.1,5-.1,7.4-.1s4.8,.1,7.3,.1h.4v-2.3h-.4c-2.9,0-4.5-.1-4.5-1.7v-10.6l7.6-10.1c2.5-3.3,3.5-3.3,5.3-3.3h.4v-2.3h-.2v-.1Z"/></g><g><path class="b" d="M38.85,62.35h-5.5c-.4-6.7-2.6-11.2-10.1-11.2-5.9,0-10.2,2.8-10.2,9,0,7.9,9.4,8.5,15.1,10.3,8.2,2.6,13.4,5.3,13.4,15,0,13-11.2,17-22.4,17-6.2,0-11.4-1.1-17-2.7v-13.4H7.95c.7,8.5,2.5,12.9,11.8,12.9,6,0,10.7-3.7,10.7-9.9,0-4.1-1.7-6.7-5.6-8.3-9.9-3.5-22.8-4-22.8-17.7,0-11.4,10.9-15.5,20.8-15.5,4.6,0,10.5,.8,15.9,2.5,.1,.1,.1,12,.1,12Z"/><path class="b" d="M51.55,59.85c0-4.7,0-7.8-7.5-7.8v-3.1h26.6v3.1c-7.6,0-7.6,3.2-7.6,7.8v41.9c0,19.2-12.3,27.2-29.7,28.6v-3.2c13-2.4,18.2-12.9,18.2-22.1V59.85h0Z"/><path class="b" d="M70.55,48.95h26.2v3.1c-7,0-7.6,3.2-7.6,7.7v24.6c0,9,3.2,14.1,13,14.1s14.8-5.1,14.8-14.7v-24c0-5.6,0-7.7-7.6-7.7v-3.1h19.3v3.1c-7.2,0-7.2,2.6-7.2,7.7v24.6c0,12.8-8.8,18.2-20.6,18.2-14.3,0-22.9-3.2-22.9-18.7v-24c0-4.6,0-7.7-7.6-7.7"/><g><path class="b" d="M58.85,2.65l-1.6-2-1.6,2c-.6,.8-6.1,7.6-6.1,13.2,0,1.1,.1,1.9,.2,2.8h4.3c-.3-1-.3-1.7-.3-2.8,0-2.5,1.9-6.1,3.5-8.5,1.6,2.4,3.5,6,3.5,8.5,0,1.1-.1,1.8-.3,2.8h4.3c.2-.9,.2-1.7,.2-2.8,0-5.6-5.4-12.4-6.1-13.2Z"/><g><path class="b" d="M55.05,28.65c-.1-4.3-2.9-9-8.2-9.7-2.5-.3-4.8,.4-6.6,2-1.7,1.5-2.7,3.6-2.7,5.8-.1,4.8,3.3,8.1,9.2,9.2l.8-4.1c-3.9-.7-5.8-2.4-5.8-5,0-1,.5-2,1.3-2.7,.9-.8,2.1-1.1,3.3-1,3.1,.4,4.6,3.2,4.6,5.6v.1l1,15.8h4.2l-1.1-16Z"/><path class="b" d="M59.45,28.65c.1-4.3,2.9-9,8.2-9.7,2.5-.3,4.8,.4,6.6,2,1.7,1.5,2.7,3.6,2.7,5.8,.1,4.8-3.3,8.1-9.2,9.2l-.8-4.1c3.8-.7,5.8-2.4,5.8-5,0-1-.5-2-1.3-2.7-.9-.8-2.1-1.1-3.3-1-3.1,.4-4.6,3.2-4.6,5.6v.1l-1,15.8h-4.2l1.1-16Z"/></g></g></g></svg>
